# xmcd
#
# Track frame offsets: 
#        150
#        21948
#        50646
#        72294
#        90342
#        116865
#        138963
#        162111
#        183159
#
# Disc length: 2934 seconds
#
# Revision: 3
# Processed by: cddbd v1.5.2PL0 Copyright (c) Steve Scherf et al.
# Submitted via: ExactAudioCopyFreeDBPlugin 1.0
#
DISCID=730b7409
DTITLE=Ingram - Would You Like to Fly
DYEAR=1983
DGENRE=Funk
TTITLE0=Would You Like to Fly
TTITLE1=D.J.'s Delight
TTITLE2=Share a Dream
TTITLE3=No One
TTITLE4=Smoothin Groovin
TTITLE5=We Like to Do It
TTITLE6=Groovin on a Groove
TTITLE7=Spoken Words
TTITLE8=Mi Sabrina Tequana (My Sister's Daughter)
EXTD=
EXTT0=
EXTT1=
EXTT2=
EXTT3=
EXTT4=
EXTT5=
EXTT6=
EXTT7=
EXTT8=
PLAYORDER=
